<svg width="25" height="24" viewBox="0 0 25 24" fill="none" xmlns="http://www.w3.org/2000/svg">
<path d="M9.89789 1.46966C10.1908 1.17678 10.6655 1.17677 10.9584 1.46966C11.2513 1.76256 11.2513 2.23732 10.9584 2.53021L10.8002 2.68744C11.1428 2.96159 11.5981 3.33007 12.1176 3.76361C13.2632 4.71958 14.7343 5.99946 16.0102 7.27533C17.2861 8.5512 18.5659 10.0223 19.5219 11.1679C19.955 11.6869 20.323 12.1418 20.5971 12.4843L20.7553 12.3271C21.0482 12.0342 21.523 12.0342 21.8159 12.3271C22.1088 12.62 22.1087 13.0947 21.8159 13.3876L16.5385 18.666C16.5369 18.6676 16.5343 18.6682 16.5327 18.6699L15.7846 19.4189C15.4917 19.7118 15.017 19.7118 14.7241 19.4189C14.4312 19.126 14.4312 18.6512 14.7241 18.3583L14.8813 18.2001C14.5387 17.926 14.0831 17.5582 13.5639 17.1249C12.5755 16.3002 11.3459 15.2339 10.2075 14.1376L2.81586 21.5302C2.52297 21.8231 2.04821 21.8231 1.75531 21.5302C1.46242 21.2373 1.46242 20.7626 1.75531 20.4697L9.14692 13.0771C8.05101 11.9389 6.98511 10.7097 6.16059 9.72162C5.72687 9.20186 5.35865 8.74597 5.08442 8.40326L4.92719 8.56146C4.6343 8.85435 4.15954 8.85434 3.86664 8.56146C3.57375 8.26857 3.57375 7.79381 3.86664 7.50091L9.89789 1.46966ZM6.15082 7.33685C6.15824 7.34617 6.16568 7.35564 6.17328 7.36517C6.44831 7.71014 6.84227 8.19664 7.31293 8.76068C8.25639 9.89129 9.50301 11.3228 10.7329 12.5527C11.9627 13.7825 13.3942 15.0291 14.5248 15.9726C15.0889 16.4433 15.5754 16.8372 15.9204 17.1122C15.9295 17.1195 15.9387 17.1266 15.9477 17.1337L19.5297 13.5507C19.5227 13.5419 19.5154 13.5324 19.5082 13.5234C19.2332 13.1784 18.84 12.6926 18.3696 12.1288C17.4261 10.9982 16.1797 9.56589 14.9496 8.33588C13.7196 7.10586 12.2874 5.85946 11.1567 4.91595C10.5929 4.44551 10.1071 4.05228 9.76215 3.77728C9.75276 3.7698 9.743 3.76213 9.73383 3.75482L6.15082 7.33685Z" fill="#747881"/>
</svg>
