<svg width="24" height="24" viewBox="0 0 24 24" fill="none" xmlns="http://www.w3.org/2000/svg">
<path fill-rule="evenodd" clip-rule="evenodd" d="M11.1555 2.25H12.8445C14.3067 2.24999 15.4652 2.24998 16.387 2.34986C17.3322 2.45226 18.1171 2.66683 18.792 3.15717C19.1952 3.45015 19.5499 3.80477 19.8428 4.20802C20.3332 4.88291 20.5477 5.66783 20.6501 6.61302C20.75 7.53485 20.75 8.69335 20.75 10.1555V13.8445C20.75 15.3067 20.75 16.4651 20.6501 17.387C20.5477 18.3322 20.3332 19.1171 19.8428 19.792C19.5499 20.1952 19.1952 20.5499 18.792 20.8428C18.1171 21.3332 17.3322 21.5477 16.387 21.6501C15.4652 21.75 14.3067 21.75 12.8445 21.75H11.1555C9.69332 21.75 8.53484 21.75 7.61302 21.6501C6.66783 21.5477 5.88291 21.3332 5.20802 20.8428C4.80477 20.5499 4.45015 20.1952 4.15717 19.792C3.66683 19.1171 3.45226 18.3322 3.34986 17.387C3.24998 16.4652 3.24999 15.3067 3.25 13.8445V10.1555C3.24999 8.69334 3.24998 7.53485 3.34986 6.61302C3.45226 5.66783 3.66683 4.88291 4.15717 4.20802C4.45015 3.80477 4.80477 3.45015 5.20802 3.15717C5.88291 2.66683 6.66783 2.45226 7.61302 2.34986C8.53485 2.24998 9.69334 2.24999 11.1555 2.25ZM7.77459 3.84113C6.95703 3.92971 6.46627 4.0971 6.0897 4.3707C5.81379 4.57115 5.57115 4.81379 5.3707 5.0897C5.0971 5.46627 4.92971 5.95703 4.84113 6.77459C4.75103 7.6062 4.75 8.6834 4.75 10.2V13.8C4.75 15.3166 4.75103 16.3938 4.84113 17.2254C4.92971 18.043 5.0971 18.5337 5.3707 18.9103C5.57115 19.1862 5.81379 19.4288 6.0897 19.6293C6.46627 19.9029 6.95703 20.0703 7.77459 20.1589C8.6062 20.249 9.6834 20.25 11.2 20.25H12.8C14.3166 20.25 15.3938 20.249 16.2254 20.1589C17.043 20.0703 17.5337 19.9029 17.9103 19.6293C18.1862 19.4288 18.4288 19.1862 18.6293 18.9103C18.9029 18.5337 19.0703 18.043 19.1589 17.2254C19.249 16.3938 19.25 15.3166 19.25 13.8V10.2C19.25 8.6834 19.249 7.6062 19.1589 6.77459C19.0703 5.95703 18.9029 5.46627 18.6293 5.0897C18.4288 4.81379 18.1862 4.57115 17.9103 4.3707C17.5337 4.0971 17.043 3.92971 16.2254 3.84113C15.3938 3.75103 14.3166 3.75 12.8 3.75H11.2C9.6834 3.75 8.6062 3.75103 7.77459 3.84113ZM8 7.25H16V8.75H8V7.25ZM8 11.25H16V12.75H8V11.25ZM8 15.25H16V16.75H8V15.25Z" fill="#747881"/>
</svg>
