<svg width="24" height="24" viewBox="-5 -5 30 30" fill="none" xmlns="http://www.w3.org/2000/svg">
<path fill-rule="evenodd" clip-rule="evenodd" d="M10 1.75C5.44365 1.75 1.75 5.44365 1.75 10C1.75 12.3219 2.7092 14.4198 4.25295 15.919C4.25701 15.5543 4.26667 15.233 4.28961 14.9499C4.33048 14.4454 4.41718 13.9969 4.62786 13.5799C4.96039 12.9219 5.49159 12.3857 6.14638 12.0493C6.41649 11.9105 6.69993 11.8249 7.00301 11.7705C6.41958 11.0792 6.06818 10.1841 6.06818 9.20833C6.06818 7.02809 7.82266 5.25 10 5.25C12.1773 5.25 13.9318 7.02809 13.9318 9.20833C13.9318 10.1841 13.5804 11.0792 12.997 11.7705C13.3001 11.8249 13.5835 11.9105 13.8536 12.0493C14.5084 12.3857 15.0396 12.9219 15.3721 13.5799C15.5828 13.9969 15.6695 14.4454 15.7104 14.9499C15.7333 15.233 15.743 15.5543 15.7471 15.919C17.2908 14.4198 18.25 12.3219 18.25 10C18.25 5.44365 14.5563 1.75 10 1.75ZM14.2533 17.0705C14.2511 17.0473 14.25 17.0238 14.25 17V16.8167C14.25 16.0343 14.2494 15.4923 14.2153 15.071C14.1819 14.6584 14.1199 14.4278 14.0334 14.2564C13.8429 13.8796 13.5397 13.5744 13.1681 13.3835C13.0003 13.2973 12.774 13.2352 12.3661 13.2016C11.9492 13.1673 11.4125 13.1667 10.6364 13.1667H9.36364C8.58745 13.1667 8.05079 13.1673 7.63395 13.2016C7.22605 13.2352 6.99966 13.2973 6.83186 13.3835C6.4603 13.5744 6.15707 13.8796 5.96665 14.2564C5.88007 14.4278 5.81815 14.6584 5.78471 15.071C5.75057 15.4923 5.75 16.0343 5.75 16.8167V17C5.75 17.0238 5.74889 17.0473 5.74672 17.0705C6.98872 17.8193 8.44406 18.25 10 18.25C11.5559 18.25 13.0113 17.8193 14.2533 17.0705ZM10 11.6667C11.3372 11.6667 12.4318 10.5719 12.4318 9.20833C12.4318 7.84475 11.3372 6.75 10 6.75C8.6628 6.75 7.56818 7.84475 7.56818 9.20833C7.56818 10.5719 8.6628 11.6667 10 11.6667ZM0.25 10C0.25 4.61522 4.61522 0.25 10 0.25C15.3848 0.25 19.75 4.61522 19.75 10C19.75 15.3848 15.3848 19.75 10 19.75C4.61522 19.75 0.25 15.3848 0.25 10Z" fill="#747881"/>
</svg>
