<svg width="24" height="24" viewBox="0 0 24 24" fill="none" xmlns="http://www.w3.org/2000/svg">
<path d="M11.9995 2.25C12.4771 2.25 13.4498 2.30502 14.353 2.46484C14.8021 2.54431 15.2704 2.65531 15.6616 2.81543C15.8574 2.8956 16.0599 2.99874 16.2368 3.13379C16.4112 3.26693 16.6028 3.46359 16.7046 3.74219L16.7358 3.84766C16.7955 4.09413 16.7562 4.33294 16.728 4.46875C16.688 4.66102 16.6195 4.8678 16.5415 5.07031C16.3842 5.47879 16.1539 5.95156 15.9077 6.4043C15.6602 6.8593 15.3867 7.31357 15.1343 7.6875C15.0148 7.86448 14.882 8.04688 14.7495 8.20996C14.8056 8.42784 14.8827 8.72597 14.9731 9.08105C15.1684 9.84805 15.4283 10.8818 15.6889 11.9473C15.9493 13.0117 16.2108 14.1123 16.4077 15.0117C16.506 15.461 16.5897 15.866 16.6489 16.1934C16.7039 16.4978 16.7505 16.798 16.7505 17.001C16.7504 17.0733 16.7399 17.1455 16.7192 17.2148C16.5939 17.6353 16.2979 18.1177 15.9751 18.5615C15.6383 19.0245 15.2189 19.5162 14.7817 19.9658C14.3462 20.4136 13.8765 20.8366 13.435 21.1533C13.2146 21.3115 12.9865 21.4537 12.7622 21.5586C12.5493 21.6581 12.279 21.753 11.9917 21.75C11.7094 21.7469 11.444 21.6503 11.2329 21.5498C11.0105 21.4439 10.7838 21.3018 10.5639 21.1436C10.1235 20.8264 9.65377 20.4046 9.21824 19.958C8.78119 19.5099 8.36275 19.0199 8.02586 18.5586C7.703 18.1165 7.40614 17.6357 7.28074 17.2148C7.26008 17.1455 7.25051 17.0733 7.25047 17.001C7.25047 16.798 7.296 16.4978 7.35105 16.1934C7.41027 15.866 7.4939 15.461 7.59226 15.0117C7.78919 14.1123 8.05055 13.0117 8.31101 11.9473C8.57173 10.8818 8.83247 9.84804 9.02781 9.08105C9.1182 8.72614 9.19437 8.42781 9.25047 8.20996C9.11825 8.04708 8.98726 7.86359 8.86765 7.68652C8.61513 7.31268 8.34091 6.85914 8.09324 6.4043C7.84695 5.95197 7.61593 5.48059 7.45847 5.07227C7.38036 4.86967 7.31298 4.66214 7.27293 4.46973C7.24055 4.3142 7.19289 4.02568 7.29539 3.74414L7.33738 3.64258C7.44453 3.41624 7.61033 3.25063 7.76316 3.13379C7.94012 2.99853 8.14248 2.89572 8.33836 2.81543C8.72958 2.65508 9.1979 2.5433 9.64695 2.46387C10.5497 2.3042 11.5213 2.25004 11.9995 2.25ZM10.4819 9.45117C10.2873 10.2154 10.0273 11.2442 9.76804 12.3037C9.50856 13.3641 9.25113 14.4513 9.05808 15.333C8.96148 15.7742 8.88214 16.1585 8.82762 16.46C8.80036 16.6106 8.78025 16.7358 8.76707 16.834C8.76433 16.8544 8.76225 16.8736 8.76023 16.8906C8.83576 17.0664 8.98958 17.3353 9.23679 17.6738C9.52622 18.0702 9.89806 18.5057 10.2925 18.9102C10.6883 19.316 11.0911 19.6745 11.4399 19.9258C11.6147 20.0516 11.7621 20.1414 11.8774 20.1963C11.9448 20.2284 11.9869 20.2407 12.0063 20.2461C12.0251 20.2409 12.0649 20.2285 12.1274 20.1992C12.2408 20.1462 12.387 20.0594 12.561 19.9346C12.9087 19.6851 13.3107 19.3269 13.7065 18.9199C14.1007 18.5145 14.4726 18.0768 14.7622 17.6787C15.0092 17.3391 15.1628 17.0685 15.2387 16.8916C15.2367 16.8743 15.2357 16.8547 15.2329 16.834C15.2197 16.7358 15.1996 16.6107 15.1723 16.46C15.1178 16.1586 15.0394 15.7742 14.9428 15.333C14.7499 14.4513 14.4913 13.3641 14.2319 12.3037C13.9728 11.2443 13.7136 10.2154 13.519 9.45117C13.4841 9.31392 13.4508 9.18518 13.4204 9.06641C12.9142 9.21406 12.396 9.24997 12.0005 9.25C11.6031 9.25 11.0854 9.213 10.5805 9.06543C10.5501 9.18449 10.517 9.31352 10.4819 9.45117ZM11.9995 3.75C11.5944 3.75004 10.7112 3.79927 9.90769 3.94141C9.50367 4.01289 9.15553 4.10162 8.90769 4.20312C8.85158 4.22613 8.80558 4.24831 8.76902 4.26758C8.78965 4.33868 8.81838 4.42722 8.85887 4.53223C8.98419 4.85723 9.18146 5.26665 9.41062 5.6875C9.63833 6.10565 9.88753 6.51752 10.1098 6.84668C10.2212 7.01159 10.3218 7.15014 10.4057 7.25488C10.4475 7.30692 10.4821 7.34688 10.5093 7.37598C10.5373 7.40597 10.5495 7.41557 10.5464 7.41309C10.8354 7.64199 11.3871 7.75 12.0005 7.75C12.6175 7.74994 13.1672 7.64328 13.4526 7.41504L13.4565 7.41211C13.4518 7.41586 13.4628 7.40682 13.4917 7.37598C13.5188 7.34703 13.5534 7.30701 13.5952 7.25488C13.679 7.15034 13.7798 7.01256 13.8911 6.84766C14.1134 6.51839 14.3626 6.10611 14.5903 5.6875C14.8194 5.2663 15.0169 4.85641 15.1421 4.53125C15.1823 4.42683 15.2094 4.33842 15.23 4.26758C15.1936 4.24852 15.1487 4.22679 15.0932 4.2041C14.8451 4.10252 14.4959 4.013 14.0913 3.94141C13.2872 3.79916 12.4033 3.75 11.9995 3.75Z" fill="#747881"/>
</svg>
