<svg width="24" height="24" viewBox="0 0 24 24" fill="none" xmlns="http://www.w3.org/2000/svg">
<path d="M10.0001 6.79754C7.57846 7.5266 5.71436 9.54783 5.71436 12.1333V14.4328C5.71436 15.1063 5.35999 15.7315 4.93656 16.2553C4.70973 16.5359 4.47542 16.896 4.29791 17.3356C3.94906 18.1994 4.64269 19.0421 5.55491 19.2311C7.16781 19.5653 8.60948 19.7946 10.0001 19.911M10.0001 6.79754C10.6362 6.60604 11.3107 6.50369 12.0001 6.50369C12.6894 6.50369 13.364 6.60604 14.0001 6.79754M10.0001 6.79754V5C10.0001 3.89543 10.8955 3 12.0001 3C13.1046 3 14.0001 3.89543 14.0001 5V6.79754M14.0001 6.79754C16.4217 7.5266 18.2858 9.54783 18.2858 12.1333V14.4328C18.2858 15.1063 18.6402 15.7315 19.0636 16.2553C19.2937 16.54 19.5315 16.9065 19.7099 17.3547C20.0509 18.2115 19.3704 19.0482 18.4688 19.2419C16.8384 19.5921 15.3874 19.8173 14.0001 19.9251M10.0001 19.911C11.3449 20.0235 12.642 20.0306 14.0001 19.9251M10.0001 19.911C10.0001 21.0155 10.8955 22 12.0001 22C13.1046 22 14.0001 21.0297 14.0001 19.9251" stroke="#747881" stroke-width="1.5" stroke-linecap="round" stroke-linejoin="round"/>
</svg>
