<svg width="24" height="24" viewBox="0 0 24 24" fill="none" xmlns="http://www.w3.org/2000/svg">
<path d="M7.25001 12C7.25001 12.4142 7.5858 12.75 8.00001 12.75C8.41423 12.75 8.75001 12.4142 8.75001 12H7.25001ZM12 8.75C12.4142 8.75 12.75 8.41421 12.75 8C12.75 7.58579 12.4142 7.25 12 7.25V8.75ZM16.75 12C16.75 11.5858 16.4142 11.25 16 11.25C15.5858 11.25 15.25 11.5858 15.25 12H16.75ZM12 15.25C11.5858 15.25 11.25 15.5858 11.25 16C11.25 16.4142 11.5858 16.75 12 16.75V15.25ZM1.8313 10.3029L1.18626 9.92026L1.18626 9.92026L1.8313 10.3029ZM22.1687 13.6971L22.8138 14.0797L22.1687 13.6971ZM22.6188 12.6376L21.8859 12.4782L21.8859 12.4782L22.6188 12.6376ZM22.1687 10.3029L22.8138 9.92026L22.1687 10.3029ZM22.6188 11.3624L21.8859 11.5218L21.8859 11.5218L22.6188 11.3624ZM1.38124 11.3624L0.648377 11.203H0.648377L1.38124 11.3624ZM1.8313 13.6971L1.18626 14.0797H1.18626L1.8313 13.6971ZM1.38124 12.6376L0.648377 12.797L1.38124 12.6376ZM20.921 7.47216C20.6295 7.1779 20.1546 7.17567 19.8603 7.46719C19.5661 7.75871 19.5638 8.23358 19.8554 8.52784L20.921 7.47216ZM9.65819 18.5015C9.2533 18.4141 8.85424 18.6715 8.76687 19.0764C8.67951 19.4813 8.93691 19.8803 9.34181 19.9677L9.65819 18.5015ZM5.6181 18.508C5.97459 18.7189 6.43456 18.6009 6.64548 18.2444C6.8564 17.888 6.73839 17.428 6.3819 17.2171L5.6181 18.508ZM17.4954 6.7114C17.8546 6.91772 18.313 6.79381 18.5193 6.43464C18.7256 6.07547 18.6017 5.61705 18.2426 5.41073L17.4954 6.7114ZM2.46968 20.4697C2.17679 20.7626 2.17679 21.2374 2.46968 21.5303C2.76258 21.8232 3.23745 21.8232 3.53034 21.5303L2.46968 20.4697ZM21.5303 3.53033C21.8232 3.23744 21.8232 2.76256 21.5303 2.46967C21.2374 2.17678 20.7626 2.17678 20.4697 2.46967L21.5303 3.53033ZM8.75001 12C8.75001 10.2051 10.2051 8.75 12 8.75V7.25C9.37666 7.25 7.25001 9.37665 7.25001 12H8.75001ZM15.25 12C15.25 13.7949 13.7949 15.25 12 15.25V16.75C14.6234 16.75 16.75 14.6234 16.75 12H15.25ZM12 3.75C7.39601 3.75 3.37563 6.22958 1.18626 9.92026L2.47634 10.6856C4.40755 7.43008 7.94872 5.25 12 5.25V3.75ZM12 20.25C16.604 20.25 20.6244 17.7704 22.8138 14.0797L21.5237 13.3144C19.5925 16.5699 16.0513 18.75 12 18.75V20.25ZM22.8138 14.0797C23.057 13.6698 23.2223 13.3917 23.3517 12.797L21.8859 12.4782C21.8086 12.8335 21.7428 12.945 21.5237 13.3144L22.8138 14.0797ZM21.5237 10.6856C21.7428 11.055 21.8086 11.1665 21.8859 11.5218L23.3517 11.203C23.2223 10.6083 23.057 10.3302 22.8138 9.92026L21.5237 10.6856ZM23.3516 12.797C23.4012 12.569 23.4167 12.2583 23.4167 12C23.4167 11.7417 23.4012 11.431 23.3516 11.203L21.8859 11.5218C21.9003 11.5878 21.9167 11.7677 21.9167 12C21.9167 12.2323 21.9003 12.4122 21.8859 12.4782L23.3516 12.797ZM1.18626 9.92026C0.943071 10.3302 0.777716 10.6083 0.648377 11.203L2.11411 11.5218C2.19138 11.1665 2.25719 11.055 2.47634 10.6856L1.18626 9.92026ZM2.47634 13.3144C2.25719 12.945 2.19138 12.8335 2.11411 12.4782L0.648377 12.797C0.777716 13.3917 0.943071 13.6698 1.18626 14.0797L2.47634 13.3144ZM0.648377 11.203C0.598783 11.431 0.583282 11.7417 0.583282 12C0.583282 12.2583 0.598783 12.569 0.648377 12.797L2.11411 12.4782C2.09976 12.4122 2.08328 12.2323 2.08328 12C2.08328 11.7677 2.09976 11.5878 2.11411 11.5218L0.648377 11.203ZM22.8138 9.92026C22.2839 9.02702 21.6471 8.20507 20.921 7.47216L19.8554 8.52784C20.4955 9.17401 21.0568 9.89854 21.5237 10.6856L22.8138 9.92026ZM9.34181 19.9677C10.1992 20.1527 11.0886 20.25 12 20.25V18.75C11.1956 18.75 10.4123 18.6642 9.65819 18.5015L9.34181 19.9677ZM1.18626 14.0797C2.26763 15.9026 3.79469 17.4292 5.6181 18.508L6.3819 17.2171C4.7757 16.2667 3.42945 14.9211 2.47634 13.3144L1.18626 14.0797ZM18.2426 5.41073C16.4031 4.3541 14.2714 3.75 12 3.75V5.25C14.0021 5.25 15.8772 5.78183 17.4954 6.7114L18.2426 5.41073ZM3.53034 21.5303L21.5303 3.53033L20.4697 2.46967L2.46968 20.4697L3.53034 21.5303Z" fill="#747881"/>
</svg>
