<svg width="24" height="24" viewBox="0 0 24 24" fill="none" xmlns="http://www.w3.org/2000/svg">
<path d="M22.1687 13.6971L21.5237 13.3144L22.1687 13.6971ZM22.6188 12.6376L23.3517 12.797L22.6188 12.6376ZM22.1687 10.3029L21.5237 10.6856L22.1687 10.3029ZM22.6188 11.3624L23.3517 11.203L22.6188 11.3624ZM1.8313 10.3029L2.47634 10.6856L1.8313 10.3029ZM1.38124 11.3624L0.648377 11.203L1.38124 11.3624ZM1.8313 13.6971L2.47634 13.3144L1.8313 13.6971ZM1.38124 12.6376L0.648377 12.797L1.38124 12.6376ZM12 15.25C10.2051 15.25 8.75001 13.7949 8.75001 12H7.25001C7.25001 14.6234 9.37666 16.75 12 16.75V15.25ZM8.75001 12C8.75001 10.2051 10.2051 8.75 12 8.75V7.25C9.37666 7.25 7.25001 9.37665 7.25001 12H8.75001ZM12 8.75C13.7949 8.75 15.25 10.2051 15.25 12H16.75C16.75 9.37665 14.6234 7.25 12 7.25V8.75ZM15.25 12C15.25 13.7949 13.7949 15.25 12 15.25V16.75C14.6234 16.75 16.75 14.6234 16.75 12H15.25ZM12 3.75C7.39601 3.75 3.37563 6.22958 1.18626 9.92026L2.47634 10.6856C4.40755 7.43008 7.94872 5.25 12 5.25V3.75ZM1.18626 14.0797C3.37563 17.7704 7.39601 20.25 12 20.25V18.75C7.94872 18.75 4.40755 16.5699 2.47634 13.3144L1.18626 14.0797ZM12 20.25C16.604 20.25 20.6244 17.7704 22.8138 14.0797L21.5237 13.3144C19.5925 16.5699 16.0513 18.75 12 18.75V20.25ZM22.8138 9.92026C20.6244 6.22958 16.604 3.75 12 3.75V5.25C16.0513 5.25 19.5925 7.43008 21.5237 10.6856L22.8138 9.92026ZM22.8138 14.0797C23.057 13.6698 23.2223 13.3917 23.3517 12.797L21.8859 12.4782C21.8086 12.8335 21.7428 12.945 21.5237 13.3144L22.8138 14.0797ZM21.5237 10.6856C21.7428 11.055 21.8086 11.1665 21.8859 11.5218L23.3517 11.203C23.2223 10.6083 23.057 10.3302 22.8138 9.92026L21.5237 10.6856ZM23.3517 12.797C23.4012 12.569 23.4167 12.2583 23.4167 12C23.4167 11.7417 23.4012 11.431 23.3517 11.203L21.8859 11.5218C21.9003 11.5878 21.9167 11.7677 21.9167 12C21.9167 12.2323 21.9003 12.4122 21.8859 12.4782L23.3517 12.797ZM1.18626 9.92026C0.943071 10.3302 0.777716 10.6083 0.648377 11.203L2.11411 11.5218C2.19138 11.1665 2.25719 11.055 2.47634 10.6856L1.18626 9.92026ZM2.47634 13.3144C2.25719 12.945 2.19138 12.8335 2.11411 12.4782L0.648377 12.797C0.777716 13.3917 0.943071 13.6698 1.18626 14.0797L2.47634 13.3144ZM0.648377 11.203C0.598783 11.431 0.583282 11.7417 0.583282 12C0.583282 12.2583 0.598783 12.569 0.648377 12.797L2.11411 12.4782C2.09976 12.4122 2.08328 12.2323 2.08328 12C2.08328 11.7677 2.09976 11.5878 2.11411 11.5218L0.648377 11.203Z" fill="#747881"/>
</svg>
