<svg width="68" height="36" viewBox="0 0 68 36" fill="none" xmlns="http://www.w3.org/2000/svg">
<path d="M0 7.2C0 3.22355 3.2047 0 7.15789 0H60.8421C64.7953 0 68 3.22355 68 7.2V28.8C68 32.7764 64.7953 36 60.8421 36H7.1579C3.2047 36 0 32.7764 0 28.8V7.2Z" fill="#366BFB"/>
<path d="M18.6212 18.4897C18.834 18.4954 19.0103 18.6592 19.0347 18.8738L20.5506 32.2142L21.4609 28.4472L21.4657 28.4291C21.5186 28.2446 21.6855 28.1165 21.8764 28.1165H22.9742L24.5586 26.3995L24.574 26.3836C24.6529 26.3065 24.7582 26.2628 24.8684 26.2621C24.9859 26.2615 25.0985 26.3099 25.1798 26.396L26.8035 28.1165H27.7875V26.6961C27.7875 26.4564 27.979 26.2621 28.2152 26.2621H30.8596C31.0959 26.2621 31.2874 26.4564 31.2874 26.6961V28.1165H32.9596V24.7628C32.9596 24.5231 33.1511 24.3288 33.3874 24.3288H35.6818C35.9181 24.3288 36.1096 24.5231 36.1096 24.7628V26.2621H37.354V21.4092C37.354 21.1695 37.5455 20.9752 37.7818 20.9752H40.5818C40.818 20.9752 41.0095 21.1695 41.0095 21.4092V26.2621H41.7484V24.7628C41.7484 24.5231 41.9399 24.3288 42.1762 24.3288H44.7817C45.018 24.3288 45.2095 24.5231 45.2095 24.7628V28.1165H46.3373V24.7628C46.3373 24.6477 46.3824 24.5374 46.4626 24.456L47.8626 23.0356L47.8785 23.0202C48.0465 22.8663 48.3056 22.8714 48.4675 23.0356L49.8675 24.456C49.9477 24.5374 49.9928 24.6477 49.9928 24.7628V28.1165H50.6539V26.6961C50.6539 26.4564 50.8454 26.2621 51.0817 26.2621H52.9094C53.1457 26.2621 53.3372 26.4564 53.3372 26.6961V28.1165H62.2038C62.44 28.1165 62.6315 28.3108 62.6315 28.5505C62.6315 28.7902 62.44 28.9845 62.2038 28.9845H52.9094C52.6732 28.9845 52.4817 28.7902 52.4817 28.5505V27.1301H51.5094V28.5505C51.5094 28.7902 51.3179 28.9845 51.0817 28.9845H49.565C49.3288 28.9845 49.1372 28.7902 49.1372 28.5505V24.9425L48.165 23.9562L47.1928 24.9425V28.5505C47.1928 28.7902 47.0013 28.9845 46.765 28.9845H44.7817C44.5455 28.9845 44.354 28.7902 44.354 28.5505V25.1968H42.604V26.6961C42.604 26.9358 42.4125 27.1301 42.1762 27.1301H40.5818C40.3455 27.1301 40.154 26.9358 40.154 26.6961V21.8432H38.2096V26.6961C38.2096 26.9358 38.0181 27.1301 37.7818 27.1301H35.6818C35.4456 27.1301 35.254 26.9358 35.254 26.6961V25.1968H33.8152V28.5505C33.8152 28.7902 33.6237 28.9845 33.3874 28.9845H30.8596C30.6234 28.9845 30.4319 28.7902 30.4319 28.5505V27.1301H28.643V28.5505C28.643 28.7902 28.4515 28.9845 28.2152 28.9845H26.6208C26.5041 28.9845 26.3925 28.9362 26.3118 28.8507L24.8742 27.3273L23.472 28.8471C23.3911 28.9348 23.2781 28.9845 23.1597 28.9845H22.212L20.8141 34.7694C20.7648 34.9734 20.5784 35.1124 20.3718 35.0992C20.1651 35.086 19.9974 34.9245 19.9737 34.7157L18.5289 22.0012L16.8538 32.0162C16.8212 32.2113 16.6627 32.3593 16.4684 32.3761C16.2741 32.3929 16.0932 32.2743 16.0285 32.0877L14.1796 26.7565L13.3652 28.719C13.2984 28.8799 13.143 28.9845 12.9709 28.9845H5.34879C5.11254 28.9845 4.92102 28.7902 4.92102 28.5505C4.92102 28.3108 5.11254 28.1165 5.34879 28.1165H12.6869L13.8211 25.3835C13.8897 25.2182 14.0515 25.1128 14.2282 25.1182C14.4049 25.1236 14.5602 25.2387 14.6189 25.4079L16.2868 30.2173L18.188 18.8509C18.2236 18.6379 18.4083 18.4839 18.6212 18.4897Z" fill="white"/>
<path d="M8.5 19.0779L8.60308 18.0836L9.89622 17.8022L11.4705 6.07645L10.0836 5.83255L10.2148 4.80069H13.1759C13.7444 4.80069 14.2754 4.77568 14.7689 4.72565C15.2687 4.67562 15.7591 4.6506 16.2401 4.6506C17.1897 4.6506 17.9924 4.73503 18.6484 4.90388C19.3043 5.06647 19.8385 5.31037 20.2508 5.63556C20.6631 5.96076 20.9661 6.36099 21.1597 6.83628C21.3534 7.30531 21.4596 7.84938 21.4783 8.4685C21.4783 8.53729 21.4783 8.60608 21.4783 8.67487C21.4783 9.50662 21.3409 10.2571 21.066 10.9262C20.7661 11.6454 20.3226 12.252 19.7354 12.746C19.1544 13.2401 18.4454 13.6153 17.6082 13.8717C16.7711 14.1281 15.8309 14.2563 14.7877 14.2563C14.5003 14.2563 14.2754 14.2532 14.113 14.2469C13.9568 14.2407 13.8163 14.2313 13.6913 14.2188L13.2603 17.8022L15.8653 18.0836L15.7903 19.0779H8.5ZM13.8413 12.943C14.0349 12.9931 14.2192 13.0181 14.3941 13.0181C14.4503 13.0181 14.5034 13.0212 14.5534 13.0275C14.6659 13.0275 14.7721 13.0243 14.872 13.0181C15.3718 13.0118 15.8185 12.8993 16.212 12.6804C16.6118 12.4615 16.9492 12.1582 17.224 11.7705C17.5052 11.3765 17.7207 10.9075 17.8706 10.3634C18.0206 9.81305 18.0955 9.20331 18.0955 8.53416C18.0955 8.05263 18.0362 7.63988 17.9175 7.29593C17.805 6.95197 17.6395 6.67368 17.4208 6.46105C17.2084 6.24217 16.9492 6.0827 16.6431 5.98264C16.337 5.88258 15.9996 5.83255 15.631 5.83255C15.4999 5.83255 15.3687 5.83881 15.2375 5.85132C15.1063 5.86382 14.9595 5.88571 14.7971 5.91698L13.8413 12.943Z" fill="white"/>
<path d="M22.4922 9.30337L22.6421 8.4685L26.4185 8.16832L26.9058 8.39345L26.2592 13.5528C26.2217 13.8279 26.1811 14.1062 26.1374 14.3876C26.0999 14.6691 26.0624 14.9411 26.0249 15.2038C25.9937 15.4602 25.9656 15.6947 25.9406 15.9073C25.9219 16.1199 25.9125 16.295 25.9125 16.4326C25.9125 16.8829 25.9843 17.2049 26.128 17.3988C26.2717 17.5927 26.4966 17.6896 26.8027 17.6896C27.1775 17.6896 27.518 17.5989 27.8241 17.4176C28.1364 17.23 28.402 17.0111 28.6206 16.7609L29.7826 8.24336H32.8374L31.6379 16.9485C31.6067 17.1924 31.6254 17.3738 31.6942 17.4926C31.7629 17.6052 31.8691 17.6615 32.0128 17.6615C32.069 17.6615 32.1221 17.6552 32.1721 17.6427C32.222 17.6302 32.2783 17.6083 32.3407 17.577C32.4032 17.5458 32.475 17.502 32.5563 17.4457C32.6437 17.3894 32.7499 17.3175 32.8749 17.23L33.1372 17.9147C33.0873 17.9898 32.9936 18.1024 32.8561 18.2524C32.7187 18.4025 32.5375 18.5526 32.3126 18.7027C32.0877 18.8528 31.8254 18.9841 31.5255 19.0967C31.2256 19.2093 30.8883 19.2656 30.5135 19.2656C29.845 19.2656 29.3734 19.1217 29.0985 18.834C28.8799 18.6089 28.7705 18.3369 28.7705 18.0179C28.7705 17.9304 28.7799 17.8366 28.7986 17.7365L28.7612 17.7084C28.5987 17.8897 28.4144 18.0742 28.2083 18.2618C28.0084 18.4432 27.7772 18.6089 27.5149 18.759C27.2525 18.9091 26.9558 19.031 26.6247 19.1248C26.2936 19.2186 25.9219 19.2656 25.5096 19.2656C25.2284 19.2656 24.9286 19.2249 24.61 19.1436C24.2914 19.0686 23.9978 18.9372 23.7291 18.7496C23.4605 18.562 23.2356 18.315 23.0545 18.0086C22.8733 17.7021 22.7796 17.3238 22.7733 16.8735C22.7733 16.6546 22.7858 16.4107 22.8108 16.1418C22.8358 15.8667 22.867 15.5821 22.9045 15.2882C22.942 14.988 22.9826 14.6847 23.0263 14.3783C23.0763 14.0718 23.1232 13.7717 23.1669 13.4777L23.6729 10.0538L22.4922 9.30337Z" fill="white"/>
<path d="M34.9851 17.9992C34.9851 17.8866 34.9945 17.7584 35.0132 17.6146C35.032 17.4645 35.0476 17.3519 35.0601 17.2769L36.6625 5.17591L35.4255 4.77255L35.613 3.99396L39.4174 3.59998L39.8953 3.85325L38.1711 16.9485C38.1399 17.1674 38.1493 17.3425 38.1992 17.4739C38.2492 17.5989 38.3492 17.6615 38.4991 17.6615C38.5491 17.6615 38.5991 17.6583 38.649 17.6521C38.699 17.6396 38.7552 17.6177 38.8177 17.5864C38.8864 17.5552 38.9614 17.5114 39.0426 17.4551C39.1301 17.3988 39.2363 17.3238 39.3612 17.23L39.6236 17.9147C39.5736 17.9835 39.4799 18.093 39.3425 18.2431C39.205 18.3932 39.027 18.5432 38.8083 18.6933C38.5897 18.8434 38.3273 18.9748 38.0212 19.0873C37.7213 19.2061 37.3809 19.2656 36.9998 19.2656C36.7437 19.2656 36.4969 19.2405 36.2595 19.1905C36.0221 19.1467 35.8097 19.0748 35.6223 18.9748C35.4349 18.8747 35.2819 18.7465 35.1632 18.5901C35.0507 18.4276 34.9914 18.2306 34.9851 17.9992Z" fill="white"/>
<path d="M40.6187 18.6183L41.0685 16.7328C41.1685 16.8329 41.3028 16.9454 41.4715 17.0705C41.6464 17.1956 41.8432 17.3144 42.0618 17.427C42.2805 17.5395 42.5179 17.6333 42.774 17.7084C43.0301 17.7834 43.2956 17.8209 43.5705 17.8209C43.7392 17.8209 43.911 17.7991 44.0859 17.7553C44.2608 17.7115 44.4201 17.6427 44.5638 17.5489C44.7075 17.4488 44.823 17.3238 44.9105 17.1737C45.0042 17.0236 45.051 16.8391 45.051 16.6202C45.051 16.4326 45.0104 16.2544 44.9292 16.0855C44.8543 15.9167 44.7418 15.751 44.5919 15.5884C44.442 15.4195 44.2608 15.2538 44.0484 15.0912C43.836 14.9223 43.5955 14.7441 43.3269 14.5565C43.1082 14.4064 42.8896 14.2344 42.6709 14.0406C42.4585 13.8467 42.2649 13.6247 42.0899 13.3745C41.9213 13.1181 41.7838 12.8273 41.6776 12.5021C41.5714 12.1707 41.5183 11.7986 41.5183 11.3859C41.5183 10.9168 41.6214 10.4853 41.8276 10.0913C42.04 9.69735 42.3367 9.35965 42.7178 9.07824C43.0988 8.79057 43.558 8.56856 44.0952 8.41222C44.6387 8.24962 45.2447 8.16832 45.9131 8.16832C46.1693 8.16832 46.4254 8.18083 46.6815 8.20584C46.9377 8.2246 47.1751 8.25275 47.3937 8.29027C47.6124 8.32154 47.806 8.35906 47.9747 8.40283C48.1434 8.44036 48.2683 8.47788 48.3495 8.5154L47.9466 10.4572C47.8841 10.3884 47.7966 10.3008 47.6842 10.1945C47.5717 10.0882 47.4343 9.98503 47.2719 9.88497C47.1157 9.78491 46.9314 9.70048 46.719 9.63169C46.5129 9.55665 46.2848 9.51912 46.035 9.51912C45.8351 9.51912 45.6445 9.54101 45.4634 9.58479C45.2822 9.62856 45.1229 9.69735 44.9855 9.79116C44.848 9.87871 44.7387 9.99128 44.6575 10.1289C44.5763 10.2664 44.5357 10.429 44.5357 10.6167C44.5357 10.8043 44.57 10.9794 44.6387 11.142C44.7075 11.3046 44.8105 11.4672 44.948 11.6298C45.0917 11.7924 45.2697 11.9612 45.4821 12.1363C45.6945 12.3052 45.9413 12.4928 46.2224 12.6991C46.4848 12.893 46.7315 13.09 46.9627 13.2901C47.1938 13.4902 47.3937 13.7122 47.5624 13.9561C47.7373 14.1938 47.8716 14.4658 47.9653 14.7723C48.0653 15.0724 48.1152 15.4195 48.1152 15.8135C48.1152 16.4013 47.9903 16.911 47.7404 17.3425C47.4968 17.774 47.1657 18.1336 46.7471 18.4213C46.3348 18.7027 45.8569 18.9153 45.3134 19.0592C44.7762 19.1968 44.2139 19.2656 43.6267 19.2656C43.3269 19.2656 43.0176 19.2437 42.699 19.1999C42.3804 19.1624 42.0806 19.1123 41.7994 19.0498C41.5246 18.9873 41.2809 18.9185 41.0685 18.8434C40.8561 18.7621 40.7062 18.6871 40.6187 18.6183Z" fill="white"/>
<path d="M49.8882 15.0443C49.8882 15.0255 49.8882 15.0068 49.8882 14.988C49.8882 14.0124 50.0412 13.1088 50.3473 12.277C50.6597 11.4328 51.0876 10.7073 51.6311 10.1007C52.1808 9.48786 52.8243 9.00945 53.5614 8.66549C54.3049 8.32154 55.1076 8.14956 55.9697 8.14956C56.5007 8.14956 56.9567 8.2121 57.3378 8.33717C57.7251 8.45599 58.0406 8.62171 58.2842 8.83434C58.5341 9.04697 58.7215 9.29712 58.8465 9.58479C58.9714 9.87246 59.0401 10.182 59.0526 10.5135C59.0526 10.551 59.0526 10.5854 59.0526 10.6167C59.0526 11.0919 58.9745 11.5234 58.8184 11.9112C58.6497 12.3239 58.4154 12.6866 58.1156 12.9993C57.8157 13.3058 57.4659 13.5747 57.0661 13.8061C56.6725 14.0312 56.2571 14.2157 55.8198 14.3595C55.3887 14.5033 54.9514 14.6128 54.5079 14.6878C54.0643 14.7629 53.6458 14.8035 53.2522 14.8098C53.2522 15.7854 53.4084 16.5077 53.7207 16.9767C54.0331 17.4395 54.461 17.6709 55.0045 17.6709C55.3793 17.6709 55.7104 17.6208 55.9978 17.5208C56.2914 17.4207 56.5507 17.2956 56.7756 17.1455C57.0005 16.9892 57.1941 16.8203 57.3565 16.639C57.5252 16.4576 57.672 16.2857 57.797 16.1231L58.3967 17.0893C58.2655 17.2956 58.075 17.5301 57.8251 17.7928C57.5814 18.0555 57.2753 18.3025 56.9068 18.5339C56.5382 18.759 56.1103 18.9497 55.623 19.1061C55.1357 19.2687 54.5922 19.35 53.9925 19.35C53.2428 19.35 52.6056 19.228 52.0809 18.9841C51.5624 18.734 51.1407 18.4057 50.8159 17.9992C50.491 17.5927 50.2536 17.133 50.1037 16.6202C49.96 16.1074 49.8882 15.5821 49.8882 15.0443ZM53.2522 13.6841C53.5271 13.6653 53.8301 13.5903 54.1612 13.459C54.4923 13.3276 54.8015 13.14 55.0889 12.8961C55.3637 12.6522 55.5949 12.3521 55.7823 11.9956C55.9572 11.6642 56.0447 11.2827 56.0447 10.8512C56.0447 10.8199 56.0447 10.7918 56.0447 10.7667C56.0259 10.3352 55.9541 10.01 55.8291 9.79116C55.7104 9.57228 55.5262 9.46284 55.2763 9.46284C55.0389 9.46284 54.8234 9.5285 54.6297 9.65983C54.4423 9.78491 54.2767 9.95688 54.1331 10.1758C53.9894 10.3884 53.8644 10.6385 53.7582 10.9262C53.6583 11.2076 53.5739 11.5047 53.5052 11.8174C53.4365 12.1301 53.3803 12.449 53.3366 12.7742C53.2991 13.0931 53.271 13.3964 53.2522 13.6841Z" fill="white"/>
</svg>
