<svg width="80" height="40" viewBox="0 0 80 40" fill="none" xmlns="http://www.w3.org/2000/svg">
<path d="M79.5882 17.3691H0L6.5754e-05 32.1113C7.80698e-05 34.8726 8.42112e-05 36.2532 0.54084 37.3078C1.0165 38.2355 1.77549 38.9898 2.70903 39.4625C3.77031 39.9998 5.15961 39.9998 7.93822 39.9998H71.6501C74.4288 39.9998 75.8181 39.9998 76.8794 39.4624C77.8129 38.9898 78.5719 38.2355 79.0475 37.3078C79.5883 36.2531 79.5883 34.8725 79.5883 32.1113L79.5882 17.3691Z" fill="#366BFB"/>
<path d="M79.5883 7.88851C79.5883 5.12727 79.5883 3.74665 79.0476 2.692C78.5719 1.7643 77.8129 1.01006 76.8794 0.537372C75.8181 0 74.4288 0 71.6502 0H7.93827C5.15965 0 3.77034 0 2.70904 0.537377C1.7755 1.01007 1.01652 1.76432 0.540856 2.69202C0.000103717 3.74668 0.000109872 5.12731 0.000122187 7.88857L0.000187941 22.6307H79.5884L79.5883 7.88851Z" fill="#366BFB"/>
<path d="M9.77829 33.8787H0.00012207V15.7153H79.5883V33.8787L69.8761 33.8786V31.847L66.713 31.847V29.8153H63.55V33.8786H60.3869V31.8469H57.2239V29.8152H54.0609V34.6777H50.8978V31.847H47.7348V29.8153H44.5717V33.8786H41.4087V31.847H38.2457V29.8152H35.0826V34.6778H31.9196V29.8153H28.7565V33.8787H25.5935V34.6778L22.4305 34.6778V26.5442L19.2674 26.5442V29.8152H16.1044V33.8786L12.9413 33.8786V31.8469H9.77829V33.8787Z" fill="#366BFB"/>
<path d="M22.4304 20.3394C22.6587 20.3394 22.8441 20.5231 22.8441 20.75V34.2671H25.18V31.8472C25.18 31.6203 25.3654 31.4365 25.5937 31.4365H28.3433V29.8154C28.3433 29.665 28.426 29.5265 28.559 29.4546C28.692 29.3827 28.8539 29.389 28.9811 29.4707L32.1439 31.502C32.2617 31.5776 32.3331 31.7077 32.3331 31.8472V34.2671H34.669V27.25C34.669 27.0231 34.8543 26.8394 35.0827 26.8394H38.2455C38.4738 26.8394 38.6592 27.0231 38.6592 27.25V31.4365H41.4088C41.6371 31.4366 41.8221 31.6203 41.8221 31.8472V34.2671H44.1584V29.8154C44.1584 29.665 44.2411 29.5265 44.3741 29.4546C44.5071 29.3827 44.6691 29.3886 44.7962 29.4702L47.7345 31.3574L50.6733 29.4707C50.8004 29.3891 50.9624 29.3827 51.0953 29.4546C51.2283 29.5265 51.311 29.665 51.3111 29.8154V34.2671H53.6474V31.8472C53.6475 31.7078 53.7188 31.5776 53.8366 31.502L56.9994 29.4702C57.1266 29.3886 57.2885 29.3827 57.4215 29.4546C57.5545 29.5265 57.6372 29.6649 57.6372 29.8154V31.4365H60.3868C60.6152 31.4365 60.8005 31.6203 60.8005 31.8472V33.4678H63.1364V29.8154C63.1365 29.5886 63.3218 29.4048 63.5501 29.4048H66.713C66.9413 29.4048 67.1266 29.5886 67.1267 29.8154V31.4365H69.8758C69.9854 31.4365 70.0906 31.4797 70.1682 31.5566C70.2457 31.6337 70.2895 31.7382 70.2895 31.8472V33.4678L79.5884 33.4683V34.2896H69.8763C69.648 34.2895 69.4626 34.1058 69.4626 33.8789V32.2578L66.713 32.2583C66.6033 32.2583 66.4982 32.2147 66.4206 32.1377C66.3431 32.0606 66.2998 31.9561 66.2998 31.8472V30.2266H63.9634V33.8789C63.9633 34.1057 63.7784 34.2895 63.5501 34.2896H60.3868C60.1586 34.2895 59.9736 34.1057 59.9736 33.8789V32.2578H57.224C56.9957 32.2578 56.8103 32.0741 56.8103 31.8472V30.5703L54.4744 32.0708V34.6777C54.4744 34.9046 54.289 35.0889 54.0607 35.0889H50.8978C50.6695 35.0889 50.4846 34.9046 50.4846 34.6777V30.5698L47.959 32.1924C47.8225 32.28 47.647 32.28 47.5104 32.1924L44.9854 30.5703V34.6777C44.9854 34.9046 44.8 35.0889 44.5717 35.0889H41.4088C41.1805 35.0889 40.9951 34.9046 40.9951 34.6777V32.2578H38.2455C38.0172 32.2577 37.8323 32.074 37.8323 31.8472V27.6606H35.4959V34.6782C35.4958 34.905 35.3109 35.0888 35.0827 35.0889H31.9193C31.6912 35.0887 31.5062 34.905 31.5061 34.6782V32.0708L29.1697 30.5698V31.8472C29.1697 32.0741 28.9848 32.2583 28.7565 32.2583H26.0069V34.6782C26.0068 34.7871 25.9635 34.8918 25.886 34.9688C25.8085 35.0457 25.7033 35.0888 25.5937 35.0889H22.4304C22.2021 35.0888 22.0171 34.9046 22.0171 34.6777V21.1606H19.6807V29.8154C19.6807 30.0423 19.4958 30.226 19.2675 30.2261H16.5179V33.8789C16.5178 34.1058 16.3325 34.2895 16.1042 34.2896H12.9414C12.8317 34.2896 12.7265 34.2464 12.649 34.1694C12.5715 34.0924 12.5277 33.9878 12.5276 33.8789V32.2578H10.1917V33.8789C10.1917 34.1057 10.0068 34.2894 9.77852 34.2896H0.00012207V33.4683H9.3648V31.8472C9.3648 31.6203 9.55018 31.436 9.77852 31.436H12.9414C13.1697 31.4361 13.3546 31.6203 13.3546 31.8472V33.4678H15.691V29.8154C15.691 29.5886 15.8759 29.4049 16.1042 29.4048H18.8538V20.75C18.8538 20.641 18.8976 20.5365 18.9752 20.4595C19.0527 20.3824 19.1579 20.3389 19.2675 20.3389L22.4304 20.3394Z" fill="white"/>
<path d="M6.61511 25.3547L6.75042 24.0578L8.44787 23.6907L10.5143 8.39662L8.69387 8.0785L8.86608 6.73262H12.753C13.4992 6.73262 14.1962 6.69999 14.8441 6.63474C15.5001 6.56948 16.1438 6.53686 16.7752 6.53686C18.0216 6.53686 19.0754 6.64697 19.9364 6.86721C20.7974 7.07929 21.4985 7.39741 22.0398 7.82156C22.581 8.24572 22.9787 8.76776 23.2329 9.38768C23.4871 9.99945 23.6265 10.7091 23.6511 11.5166C23.6511 11.6063 23.6511 11.6961 23.6511 11.7858C23.6511 12.8707 23.4707 13.8495 23.1099 14.7223C22.7163 15.6603 22.1341 16.4515 21.3632 17.0959C20.6006 17.7403 19.6699 18.2297 18.5711 18.5642C17.4722 18.8986 16.2381 19.0658 14.8687 19.0658C14.4914 19.0658 14.1962 19.0617 13.983 19.0536C13.778 19.0454 13.5935 19.0332 13.4295 19.0169L12.8637 23.6907L16.2832 24.0578L16.1848 25.3547H6.61511ZM13.6263 17.3529C13.8805 17.4181 14.1224 17.4507 14.352 17.4507C14.4258 17.4507 14.4955 17.4548 14.5611 17.463C14.7087 17.463 14.8482 17.4589 14.9794 17.4507C15.6354 17.4426 16.2217 17.2958 16.7383 17.0103C17.2631 16.7248 17.7059 16.3292 18.0667 15.8234C18.4358 15.3096 18.7187 14.6978 18.9155 13.9882C19.1123 13.2703 19.2107 12.4751 19.2107 11.6023C19.2107 10.9742 19.1328 10.4358 18.977 9.98721C18.8294 9.53858 18.6121 9.1756 18.3251 8.89827C18.0462 8.61278 17.7059 8.40478 17.3041 8.27427C16.9023 8.14376 16.4595 8.0785 15.9757 8.0785C15.8035 8.0785 15.6313 8.08666 15.4591 8.10297C15.2869 8.11929 15.0942 8.14784 14.881 8.18862L13.6263 17.3529Z" fill="white"/>
<path d="M24.982 12.6056L25.1788 11.5166L30.1359 11.1251L30.7755 11.4187L29.9267 18.1482C29.8775 18.5071 29.8242 18.87 29.7668 19.2371C29.7176 19.6042 29.6684 19.959 29.6192 20.3016C29.5782 20.636 29.5413 20.9419 29.5085 21.2192C29.4839 21.4965 29.4716 21.7249 29.4716 21.9044C29.4716 22.4917 29.5659 22.9118 29.7545 23.1646C29.9431 23.4175 30.2384 23.5439 30.6402 23.5439C31.1322 23.5439 31.5791 23.4256 31.9809 23.1891C32.3909 22.9444 32.7394 22.6589 33.0264 22.3326L34.5517 11.223H38.5616L36.9872 22.5773C36.9461 22.8954 36.9708 23.132 37.061 23.287C37.1512 23.4338 37.2906 23.5072 37.4792 23.5072C37.553 23.5072 37.6227 23.4991 37.6883 23.4827C37.7539 23.4664 37.8277 23.4379 37.9097 23.3971C37.9917 23.3563 38.086 23.2992 38.1926 23.2258C38.3074 23.1524 38.4468 23.0586 38.6108 22.9444L38.9552 23.8376C38.8896 23.9354 38.7666 24.0823 38.5862 24.278C38.4058 24.4738 38.168 24.6696 37.8728 24.8653C37.5776 25.0611 37.2332 25.2324 36.8395 25.3792C36.4459 25.526 36.0031 25.5994 35.5111 25.5994C34.6337 25.5994 34.0146 25.4118 33.6538 25.0366C33.3667 24.743 33.2232 24.3882 33.2232 23.9722C33.2232 23.858 33.2355 23.7356 33.2601 23.6051L33.2109 23.5684C32.9977 23.8049 32.7558 24.0456 32.4852 24.2903C32.2228 24.5268 31.9194 24.743 31.575 24.9387C31.2306 25.1345 30.8411 25.2936 30.4065 25.4159C29.9718 25.5383 29.4839 25.5994 28.9427 25.5994C28.5737 25.5994 28.1801 25.5464 27.7619 25.4404C27.3437 25.3425 26.9583 25.1712 26.6056 24.9265C26.253 24.6818 25.9578 24.3596 25.72 23.9599C25.4822 23.5602 25.3592 23.0667 25.351 22.4794C25.351 22.194 25.3674 21.8758 25.4002 21.5251C25.433 21.1662 25.474 20.7951 25.5232 20.4117C25.5724 20.0202 25.6257 19.6245 25.6831 19.2249C25.7487 18.8252 25.8102 18.4336 25.8676 18.0503L26.5318 13.5844L24.982 12.6056Z" fill="white"/>
<path d="M41.3808 23.9477C41.3808 23.8009 41.3931 23.6336 41.4177 23.446C41.4423 23.2503 41.4628 23.1034 41.4792 23.0056L43.5826 7.22203L41.959 6.69592L42.205 5.68039L47.1989 5.1665L47.8262 5.49686L45.563 22.5773C45.522 22.8628 45.5343 23.0912 45.5999 23.2625C45.6655 23.4256 45.7967 23.5072 45.9935 23.5072C46.0591 23.5072 46.1247 23.5031 46.1903 23.495C46.2559 23.4787 46.3297 23.4501 46.4117 23.4093C46.5019 23.3685 46.6003 23.3114 46.7069 23.238C46.8217 23.1646 46.9611 23.0667 47.1251 22.9444L47.4695 23.8376C47.4039 23.9273 47.2809 24.07 47.1005 24.2658C46.9201 24.4616 46.6864 24.6573 46.3994 24.8531C46.1124 25.0489 45.768 25.2202 45.3662 25.367C44.9725 25.522 44.5256 25.5994 44.0254 25.5994C43.6892 25.5994 43.3653 25.5668 43.0537 25.5016C42.7421 25.4445 42.4633 25.3507 42.2173 25.2202C41.9713 25.0896 41.7703 24.9224 41.6145 24.7185C41.4669 24.5064 41.389 24.2495 41.3808 23.9477Z" fill="white"/>
<path d="M48.7758 24.7552L49.3662 22.2959C49.4974 22.4264 49.6737 22.5732 49.8951 22.7364C50.1247 22.8995 50.3831 23.0545 50.6701 23.2013C50.9571 23.3482 51.2687 23.4705 51.6049 23.5684C51.9411 23.6663 52.2896 23.7152 52.6504 23.7152C52.8718 23.7152 53.0973 23.6867 53.3269 23.6296C53.5565 23.5725 53.7657 23.4827 53.9543 23.3604C54.1429 23.2299 54.2946 23.0667 54.4094 22.871C54.5324 22.6752 54.5939 22.4346 54.5939 22.1491C54.5939 21.9044 54.5406 21.6719 54.434 21.4517C54.3356 21.2314 54.188 21.0153 53.9912 20.8032C53.7944 20.583 53.5565 20.3668 53.2777 20.1547C52.9989 19.9345 52.6832 19.702 52.3306 19.4573C52.0436 19.2616 51.7566 19.0372 51.4696 18.7844C51.1908 18.5315 50.9366 18.242 50.707 17.9157C50.4856 17.5812 50.3052 17.202 50.1658 16.7778C50.0263 16.3455 49.9566 15.8602 49.9566 15.3218C49.9566 14.71 50.0919 14.1472 50.3626 13.6333C50.6414 13.1194 51.0309 12.679 51.5311 12.3119C52.0313 11.9367 52.634 11.6471 53.3392 11.4432C54.0527 11.2311 54.8481 11.1251 55.7255 11.1251C56.0617 11.1251 56.3979 11.1414 56.7341 11.174C57.0704 11.1985 57.382 11.2352 57.669 11.2842C57.956 11.3249 58.2102 11.3739 58.4316 11.431C58.653 11.4799 58.817 11.5289 58.9236 11.5778L58.3947 14.1105C58.3127 14.0208 58.1979 13.9066 58.0503 13.7679C57.9027 13.6292 57.7223 13.4947 57.5091 13.3642C57.3041 13.2336 57.0621 13.1235 56.7833 13.0338C56.5127 12.9359 56.2134 12.887 55.8854 12.887C55.623 12.887 55.3729 12.9155 55.1351 12.9726C54.8973 13.0297 54.6882 13.1194 54.5078 13.2418C54.3274 13.356 54.1839 13.5028 54.0773 13.6823C53.9707 13.8617 53.9174 14.0738 53.9174 14.3185C53.9174 14.5632 53.9625 14.7916 54.0527 15.0037C54.1429 15.2158 54.2782 15.4278 54.4586 15.6399C54.6472 15.852 54.8809 16.0722 55.1597 16.3006C55.4385 16.5209 55.7624 16.7656 56.1314 17.0347C56.4758 17.2876 56.7997 17.5445 57.1032 17.8056C57.4066 18.0666 57.669 18.3562 57.8904 18.6743C58.12 18.9842 58.2963 19.3391 58.4193 19.7387C58.5505 20.1303 58.6161 20.583 58.6161 21.0969C58.6161 21.8636 58.4521 22.5284 58.1241 23.0912C57.8043 23.654 57.3697 24.1231 56.8202 24.4983C56.279 24.8653 55.6517 25.1427 54.9383 25.3303C54.2331 25.5097 53.495 25.5994 52.7242 25.5994C52.3306 25.5994 51.9247 25.5709 51.5065 25.5138C51.0883 25.4649 50.6947 25.3996 50.3257 25.318C49.9648 25.2365 49.645 25.1467 49.3662 25.0489C49.0874 24.9428 48.8906 24.8449 48.7758 24.7552Z" fill="white"/>
<path d="M60.9433 20.0936C60.9433 20.0691 60.9433 20.0446 60.9433 20.0202C60.9433 18.7477 61.1442 17.569 61.546 16.4842C61.9561 15.383 62.5178 14.4368 63.2312 13.6456C63.9528 12.8462 64.7974 12.2222 65.7651 11.7736C66.7409 11.3249 67.7946 11.1006 68.9263 11.1006C69.6233 11.1006 70.2219 11.1822 70.7221 11.3453C71.2305 11.5003 71.6446 11.7165 71.9644 11.9938C72.2924 12.2711 72.5385 12.5974 72.7025 12.9726C72.8665 13.3478 72.9567 13.7516 72.9731 14.1839C72.9731 14.2329 72.9731 14.2777 72.9731 14.3185C72.9731 14.9384 72.8706 15.5012 72.6656 16.007C72.4442 16.5453 72.1367 17.0184 71.743 17.4263C71.3494 17.826 70.8902 18.1767 70.3654 18.4785C69.8488 18.7722 69.3035 19.0128 68.7294 19.2004C68.1636 19.388 67.5896 19.5307 67.0074 19.6286C66.4252 19.7265 65.8758 19.7795 65.3591 19.7877C65.3591 21.0602 65.5642 22.0023 65.9742 22.614C66.3842 23.2176 66.9459 23.5194 67.6593 23.5194C68.1513 23.5194 68.5859 23.4542 68.9632 23.3237C69.3486 23.1932 69.6889 23.03 69.9841 22.8343C70.2793 22.6303 70.5335 22.4101 70.7467 22.1736C70.9681 21.937 71.1608 21.7127 71.3248 21.5006L72.112 22.7609C71.9398 23.03 71.6897 23.3359 71.3617 23.6785C71.0419 24.0211 70.6401 24.3433 70.1563 24.6451C69.6725 24.9387 69.1108 25.1875 68.4711 25.3914C67.8315 25.6035 67.1181 25.7096 66.3309 25.7096C65.3469 25.7096 64.5104 25.5505 63.8216 25.2324C63.141 24.9061 62.5875 24.4779 62.1611 23.9477C61.7346 23.4175 61.423 22.818 61.2262 22.1491C61.0376 21.4802 60.9433 20.7951 60.9433 20.0936ZM65.3591 18.3194C65.72 18.295 66.1177 18.1971 66.5523 18.0258C66.9869 17.8545 67.3928 17.6098 67.77 17.2917C68.1308 16.9736 68.4342 16.582 68.6802 16.1171C68.9099 15.6848 69.0247 15.1872 69.0247 14.6244C69.0247 14.5836 69.0247 14.5469 69.0247 14.5143C69.0001 13.9514 68.9058 13.5273 68.7417 13.2418C68.5859 12.9563 68.344 12.8136 68.016 12.8136C67.7044 12.8136 67.4215 12.8992 67.1673 13.0705C66.9213 13.2336 66.704 13.458 66.5154 13.7434C66.3268 14.0208 66.1628 14.3471 66.0234 14.7223C65.8922 15.0893 65.7815 15.4768 65.6913 15.8846C65.6011 16.2925 65.5273 16.7085 65.4699 17.1326C65.4207 17.5486 65.3838 17.9442 65.3591 18.3194Z" fill="white"/>
</svg>
