<svg width="18" height="18" viewBox="0 0 18 18" fill="none" xmlns="http://www.w3.org/2000/svg">
<path d="M5.54709 10.0735C5.70892 9.75052 5.8 9.3859 5.8 9C5.8 8.6141 5.70892 8.24948 5.54709 7.92645M5.54709 10.0735C5.15307 10.8601 4.33959 11.4 3.4 11.4C2.07452 11.4 1 10.3255 1 9C1 7.67452 2.07452 6.6 3.4 6.6C4.33959 6.6 5.15307 7.13993 5.54709 7.92645M5.54709 10.0735L12.4529 13.5265M5.54709 7.92645L12.4529 4.47355M12.4529 4.47355C12.8469 5.26007 13.6604 5.8 14.6 5.8C15.9255 5.8 17 4.72548 17 3.4C17 2.07452 15.9255 1 14.6 1C13.2745 1 12.2 2.07452 12.2 3.4C12.2 3.7859 12.2911 4.15052 12.4529 4.47355ZM12.4529 13.5265C12.2911 13.8495 12.2 14.2141 12.2 14.6C12.2 15.9255 13.2745 17 14.6 17C15.9255 17 17 15.9255 17 14.6C17 13.2745 15.9255 12.2 14.6 12.2C13.6604 12.2 12.8469 12.7399 12.4529 13.5265Z" stroke="#747881" stroke-width="1.5" stroke-linecap="square" stroke-linejoin="round"/>
</svg>
